<?xml version="1.0" encoding="UTF-8" standalone="no"?>
<!DOCTYPE svg PUBLIC "-//W3C//DTD SVG 1.1//EN"
 "http://www.w3.org/Graphics/SVG/1.1/DTD/svg11.dtd">
<!-- Generated by graphviz version 2.43.0 (0)
 -->
<!-- Title: routing Pages: 1 -->
<svg width="669pt" height="457pt"
 viewBox="0.00 0.00 669.00 457.00" xmlns="http://www.w3.org/2000/svg" xmlns:xlink="http://www.w3.org/1999/xlink">
<g id="graph0" class="graph" transform="scale(1 1) rotate(0) translate(4 453)">
<title>routing</title>
<g id="clust1" class="cluster">
<title>cluster_legend</title>
<polygon fill="transparent" stroke="#26314b" points="8,-370 8,-441 653,-441 653,-370 8,-370"/>
<text text-anchor="middle" x="330.5" y="-429" font-family="Helvetica,sans-Serif" font-size="10.00" fill="#96a0b8">key</text>
</g>
<!-- all -->
<g id="node1" class="node">
<title>all</title>
<path fill="#2a1614" stroke="#e05c4b" stroke-width="1.2" d="M113.5,-198C113.5,-198 33.5,-198 33.5,-198 27.5,-198 21.5,-192 21.5,-186 21.5,-186 21.5,-174 21.5,-174 21.5,-168 27.5,-162 33.5,-162 33.5,-162 113.5,-162 113.5,-162 119.5,-162 125.5,-168 125.5,-174 125.5,-174 125.5,-186 125.5,-186 125.5,-192 119.5,-198 113.5,-198"/>
<text text-anchor="middle" x="73.5" y="-177.2" font-family="Helvetica,sans-Serif" font-size="11.00" fill="#e9edf6">792 actions/day</text>
</g>
<!-- delete_row -->
<g id="node2" class="node">
<title>delete_row</title>
<path fill="#2a2114" stroke="#e0912f" stroke-width="1.2" d="M287,-198C287,-198 197,-198 197,-198 191,-198 185,-192 185,-186 185,-186 185,-174 185,-174 185,-168 191,-162 197,-162 197,-162 287,-162 287,-162 293,-162 299,-168 299,-174 299,-174 299,-186 299,-186 299,-192 293,-198 287,-198"/>
<text text-anchor="middle" x="242" y="-177.2" font-family="Helvetica,sans-Serif" font-size="11.00" fill="#e9edf6">delete_rown6/day</text>
</g>
<!-- all&#45;&gt;delete_row -->
<g id="edge1" class="edge">
<title>all&#45;&gt;delete_row</title>
<path fill="none" stroke="#8a93a6" stroke-width="1.1" d="M125.81,-180C141.32,-180 158.57,-180 174.91,-180"/>
<polygon fill="#8a93a6" stroke="#8a93a6" stroke-width="1.1" points="174.93,-183.5 184.93,-180 174.93,-176.5 174.93,-183.5"/>
</g>
<!-- issue_refund -->
<g id="node4" class="node">
<title>issue_refund</title>
<path fill="#2a2114" stroke="#e0912f" stroke-width="1.2" d="M291.5,-360C291.5,-360 192.5,-360 192.5,-360 186.5,-360 180.5,-354 180.5,-348 180.5,-348 180.5,-336 180.5,-336 180.5,-330 186.5,-324 192.5,-324 192.5,-324 291.5,-324 291.5,-324 297.5,-324 303.5,-330 303.5,-336 303.5,-336 303.5,-348 303.5,-348 303.5,-354 297.5,-360 291.5,-360"/>
<text text-anchor="middle" x="242" y="-339.2" font-family="Helvetica,sans-Serif" font-size="11.00" fill="#e9edf6">issue_refundn2/day</text>
</g>
<!-- all&#45;&gt;issue_refund -->
<g id="edge2" class="edge">
<title>all&#45;&gt;issue_refund</title>
<path fill="none" stroke="#8a93a6" stroke-width="1.1" d="M82.69,-198.4C96.38,-227.18 126.55,-282.85 168,-315 169.6,-316.24 171.27,-317.43 172.98,-318.57"/>
<polygon fill="#8a93a6" stroke="#8a93a6" stroke-width="1.1" points="171.52,-321.77 181.91,-323.85 175.08,-315.75 171.52,-321.77"/>
</g>
<!-- read_report -->
<g id="node6" class="node">
<title>read_report</title>
<path fill="#1a1e28" stroke="#8a93a6" stroke-width="1.2" d="M295.5,-36C295.5,-36 188.5,-36 188.5,-36 182.5,-36 176.5,-30 176.5,-24 176.5,-24 176.5,-12 176.5,-12 176.5,-6 182.5,0 188.5,0 188.5,0 295.5,0 295.5,0 301.5,0 307.5,-6 307.5,-12 307.5,-12 307.5,-24 307.5,-24 307.5,-30 301.5,-36 295.5,-36"/>
<text text-anchor="middle" x="242" y="-15.2" font-family="Helvetica,sans-Serif" font-size="11.00" fill="#e9edf6">read_reportn400/day</text>
</g>
<!-- all&#45;&gt;read_report -->
<g id="edge3" class="edge">
<title>all&#45;&gt;read_report</title>
<path fill="none" stroke="#8a93a6" stroke-width="1.1" d="M82.69,-161.6C96.38,-132.82 126.55,-77.15 168,-45 169.6,-43.76 171.27,-42.57 172.98,-41.43"/>
<polygon fill="#8a93a6" stroke="#8a93a6" stroke-width="1.1" points="175.08,-44.25 181.91,-36.15 171.52,-38.23 175.08,-44.25"/>
</g>
<!-- rotate_credential -->
<g id="node7" class="node">
<title>rotate_credential</title>
<path fill="#2a2114" stroke="#e0912f" stroke-width="1.2" d="M304,-306C304,-306 180,-306 180,-306 174,-306 168,-300 168,-294 168,-294 168,-282 168,-282 168,-276 174,-270 180,-270 180,-270 304,-270 304,-270 310,-270 316,-276 316,-282 316,-282 316,-294 316,-294 316,-300 310,-306 304,-306"/>
<text text-anchor="middle" x="242" y="-285.2" font-family="Helvetica,sans-Serif" font-size="11.00" fill="#e9edf6">rotate_credentialn1/day</text>
</g>
<!-- all&#45;&gt;rotate_credential -->
<g id="edge4" class="edge">
<title>all&#45;&gt;rotate_credential</title>
<path fill="none" stroke="#8a93a6" stroke-width="1.1" d="M91.61,-198.25C109.29,-216.24 138.42,-243.51 168,-261 170.65,-262.57 173.4,-264.07 176.22,-265.5"/>
<polygon fill="#8a93a6" stroke="#8a93a6" stroke-width="1.1" points="174.87,-268.74 185.41,-269.86 177.87,-262.41 174.87,-268.74"/>
</g>
<!-- send_email -->
<g id="node8" class="node">
<title>send_email</title>
<path fill="#2a2114" stroke="#e0912f" stroke-width="1.2" d="M288,-252C288,-252 196,-252 196,-252 190,-252 184,-246 184,-240 184,-240 184,-228 184,-228 184,-222 190,-216 196,-216 196,-216 288,-216 288,-216 294,-216 300,-222 300,-228 300,-228 300,-240 300,-240 300,-246 294,-252 288,-252"/>
<text text-anchor="middle" x="242" y="-231.2" font-family="Helvetica,sans-Serif" font-size="11.00" fill="#e9edf6">send_emailn3/day</text>
</g>
<!-- all&#45;&gt;send_email -->
<g id="edge5" class="edge">
<title>all&#45;&gt;send_email</title>
<path fill="none" stroke="#8a93a6" stroke-width="1.1" d="M125.81,-196.64C141.55,-201.75 159.08,-207.43 175.62,-212.8"/>
<polygon fill="#8a93a6" stroke="#8a93a6" stroke-width="1.1" points="174.63,-216.15 185.22,-215.91 176.79,-209.5 174.63,-216.15"/>
</g>
<!-- update_ticket -->
<g id="node9" class="node">
<title>update_ticket</title>
<path fill="#1a1e28" stroke="#8a93a6" stroke-width="1.2" d="M301,-144C301,-144 183,-144 183,-144 177,-144 171,-138 171,-132 171,-132 171,-120 171,-120 171,-114 177,-108 183,-108 183,-108 301,-108 301,-108 307,-108 313,-114 313,-120 313,-120 313,-132 313,-132 313,-138 307,-144 301,-144"/>
<text text-anchor="middle" x="242" y="-123.2" font-family="Helvetica,sans-Serif" font-size="11.00" fill="#e9edf6">update_ticketn260/day</text>
</g>
<!-- all&#45;&gt;update_ticket -->
<g id="edge6" class="edge">
<title>all&#45;&gt;update_ticket</title>
<path fill="none" stroke="#8a93a6" stroke-width="1.1" d="M125.81,-163.36C141.55,-158.25 159.08,-152.57 175.62,-147.2"/>
<polygon fill="#8a93a6" stroke="#8a93a6" stroke-width="1.1" points="176.79,-150.5 185.22,-144.09 174.63,-143.85 176.79,-150.5"/>
</g>
<!-- write_draft -->
<g id="node10" class="node">
<title>write_draft</title>
<path fill="#1a1e28" stroke="#8a93a6" stroke-width="1.2" d="M293.5,-90C293.5,-90 190.5,-90 190.5,-90 184.5,-90 178.5,-84 178.5,-78 178.5,-78 178.5,-66 178.5,-66 178.5,-60 184.5,-54 190.5,-54 190.5,-54 293.5,-54 293.5,-54 299.5,-54 305.5,-60 305.5,-66 305.5,-66 305.5,-78 305.5,-78 305.5,-84 299.5,-90 293.5,-90"/>
<text text-anchor="middle" x="242" y="-69.2" font-family="Helvetica,sans-Serif" font-size="11.00" fill="#e9edf6">write_draftn120/day</text>
</g>
<!-- all&#45;&gt;write_draft -->
<g id="edge7" class="edge">
<title>all&#45;&gt;write_draft</title>
<path fill="none" stroke="#8a93a6" stroke-width="1.1" d="M91.61,-161.75C109.29,-143.76 138.42,-116.49 168,-99 170.65,-97.43 173.4,-95.93 176.22,-94.5"/>
<polygon fill="#8a93a6" stroke="#8a93a6" stroke-width="1.1" points="177.87,-97.59 185.41,-90.14 174.87,-91.26 177.87,-97.59"/>
</g>
<!-- human -->
<g id="node3" class="node">
<title>human</title>
<path fill="#14231b" stroke="#3fa06b" stroke-width="1.2" d="M540,-278C540,-278 414,-278 414,-278 408,-278 402,-272 402,-266 402,-266 402,-254 402,-254 402,-248 408,-242 414,-242 414,-242 540,-242 540,-242 546,-242 552,-248 552,-254 552,-254 552,-266 552,-266 552,-272 546,-278 540,-278"/>
<text text-anchor="middle" x="477" y="-257.2" font-family="Helvetica,sans-Serif" font-size="11.00" fill="#e9edf6">human approvaln12/day</text>
</g>
<!-- delete_row&#45;&gt;human -->
<g id="edge8" class="edge">
<title>delete_row&#45;&gt;human</title>
<path fill="none" stroke="#8a93a6" stroke-width="1.1" d="M295.58,-198.05C330.57,-210.07 376.71,-225.91 413.56,-238.56"/>
<polygon fill="#8a93a6" stroke="#8a93a6" stroke-width="1.1" points="412.61,-241.94 423.21,-241.87 414.89,-235.32 412.61,-241.94"/>
<text text-anchor="middle" x="359" y="-230.8" font-family="Helvetica,sans-Serif" font-size="9.00">irreversible</text>
</g>
<!-- issue_refund&#45;&gt;human -->
<g id="edge9" class="edge">
<title>issue_refund&#45;&gt;human</title>
<path fill="none" stroke="#8a93a6" stroke-width="1.1" d="M294.42,-323.9C329.97,-311.39 377.43,-294.69 414.92,-281.5"/>
<polygon fill="#8a93a6" stroke="#8a93a6" stroke-width="1.1" points="416.44,-284.67 424.71,-278.05 414.12,-278.07 416.44,-284.67"/>
<text text-anchor="middle" x="359" y="-311.8" font-family="Helvetica,sans-Serif" font-size="9.00">irreversible</text>
</g>
<!-- policy -->
<g id="node5" class="node">
<title>policy</title>
<path fill="#1a1e28" stroke="#8a93a6" stroke-width="1.2" d="M528.5,-90C528.5,-90 425.5,-90 425.5,-90 419.5,-90 413.5,-84 413.5,-78 413.5,-78 413.5,-66 413.5,-66 413.5,-60 419.5,-54 425.5,-54 425.5,-54 528.5,-54 528.5,-54 534.5,-54 540.5,-60 540.5,-66 540.5,-66 540.5,-78 540.5,-78 540.5,-84 534.5,-90 528.5,-90"/>
<text text-anchor="middle" x="477" y="-69.2" font-family="Helvetica,sans-Serif" font-size="11.00" fill="#e9edf6">policy onlyn780/day</text>
</g>
<!-- read_report&#45;&gt;policy -->
<g id="edge10" class="edge">
<title>read_report&#45;&gt;policy</title>
<path fill="none" stroke="#8a93a6" stroke-width="1.1" d="M307.59,-32.97C337.37,-39.87 372.83,-48.09 403.51,-55.2"/>
<polygon fill="#8a93a6" stroke="#8a93a6" stroke-width="1.1" points="402.76,-58.62 413.29,-57.47 404.34,-51.8 402.76,-58.62"/>
</g>
<!-- rotate_credential&#45;&gt;human -->
<g id="edge11" class="edge">
<title>rotate_credential&#45;&gt;human</title>
<path fill="none" stroke="#8a93a6" stroke-width="1.1" d="M316.08,-279.22C340.13,-276.33 367.06,-273.09 391.86,-270.11"/>
<polygon fill="#8a93a6" stroke="#8a93a6" stroke-width="1.1" points="392.46,-273.56 401.97,-268.9 391.63,-266.61 392.46,-273.56"/>
<text text-anchor="middle" x="359" y="-279.8" font-family="Helvetica,sans-Serif" font-size="9.00">irreversible</text>
</g>
<!-- send_email&#45;&gt;human -->
<g id="edge12" class="edge">
<title>send_email&#45;&gt;human</title>
<path fill="none" stroke="#8a93a6" stroke-width="1.1" d="M300.3,-240.39C327.78,-243.46 361.24,-247.19 391.57,-250.58"/>
<polygon fill="#8a93a6" stroke="#8a93a6" stroke-width="1.1" points="391.39,-254.08 401.72,-251.71 392.17,-247.12 391.39,-254.08"/>
<text text-anchor="middle" x="359" y="-252.8" font-family="Helvetica,sans-Serif" font-size="9.00">irreversible</text>
</g>
<!-- update_ticket&#45;&gt;policy -->
<g id="edge13" class="edge">
<title>update_ticket&#45;&gt;policy</title>
<path fill="none" stroke="#8a93a6" stroke-width="1.1" d="M313.22,-109.72C341.75,-103.11 374.7,-95.48 403.46,-88.81"/>
<polygon fill="#8a93a6" stroke="#8a93a6" stroke-width="1.1" points="404.49,-92.17 413.44,-86.5 402.91,-85.35 404.49,-92.17"/>
</g>
<!-- write_draft&#45;&gt;policy -->
<g id="edge14" class="edge">
<title>write_draft&#45;&gt;policy</title>
<path fill="none" stroke="#8a93a6" stroke-width="1.1" d="M305.75,-72C335.66,-72 371.62,-72 402.78,-72"/>
<polygon fill="#8a93a6" stroke="#8a93a6" stroke-width="1.1" points="403.14,-75.5 413.14,-72 403.14,-68.5 403.14,-75.5"/>
</g>
<!-- legend_entry -->
<g id="node11" class="node">
<title>legend_entry</title>
<path fill="#2a1614" stroke="#e05c4b" stroke-width="1.2" d="M119,-414C119,-414 28,-414 28,-414 22,-414 16,-408 16,-402 16,-402 16,-390 16,-390 16,-384 22,-378 28,-378 28,-378 119,-378 119,-378 125,-378 131,-384 131,-390 131,-390 131,-402 131,-402 131,-408 125,-414 119,-414"/>
<text text-anchor="middle" x="73.5" y="-393.8" font-family="Helvetica,sans-Serif" font-size="9.00" fill="#e9edf6">untrusted entry point</text>
</g>
<!-- legend_unit -->
<g id="node12" class="node">
<title>legend_unit</title>
<path fill="#1a1e28" stroke="#8a93a6" stroke-width="1.2" d="M260.5,-414C260.5,-414 223.5,-414 223.5,-414 217.5,-414 211.5,-408 211.5,-402 211.5,-402 211.5,-390 211.5,-390 211.5,-384 217.5,-378 223.5,-378 223.5,-378 260.5,-378 260.5,-378 266.5,-378 272.5,-384 272.5,-390 272.5,-390 272.5,-402 272.5,-402 272.5,-408 266.5,-414 260.5,-414"/>
<text text-anchor="middle" x="242" y="-393.8" font-family="Helvetica,sans-Serif" font-size="9.00" fill="#e9edf6">reachable</text>
</g>
<!-- legend_entry&#45;&gt;legend_unit -->
<!-- legend_sink -->
<g id="node13" class="node">
<title>legend_sink</title>
<path fill="#2a2114" stroke="#e0912f" stroke-width="1.2" d="M515.5,-414C515.5,-414 438.5,-414 438.5,-414 432.5,-414 426.5,-408 426.5,-402 426.5,-402 426.5,-390 426.5,-390 426.5,-384 432.5,-378 438.5,-378 438.5,-378 515.5,-378 515.5,-378 521.5,-378 527.5,-384 527.5,-390 527.5,-390 527.5,-402 527.5,-402 527.5,-408 521.5,-414 515.5,-414"/>
<text text-anchor="middle" x="477" y="-393.8" font-family="Helvetica,sans-Serif" font-size="9.00" fill="#e9edf6">acts on something</text>
</g>
<!-- legend_unit&#45;&gt;legend_sink -->
<!-- legend_control -->
<g id="node14" class="node">
<title>legend_control</title>
<path fill="#14231b" stroke="#3fa06b" stroke-width="1.2" d="M633,-414C633,-414 601,-414 601,-414 595,-414 589,-408 589,-402 589,-402 589,-390 589,-390 589,-384 595,-378 601,-378 601,-378 633,-378 633,-378 639,-378 645,-384 645,-390 645,-390 645,-402 645,-402 645,-408 639,-414 633,-414"/>
<text text-anchor="middle" x="617" y="-393.8" font-family="Helvetica,sans-Serif" font-size="9.00" fill="#e9edf6">a control</text>
</g>
<!-- legend_sink&#45;&gt;legend_control -->
</g>
</svg>
