<?xml version="1.0" encoding="UTF-8" standalone="no"?>
<!DOCTYPE svg PUBLIC "-//W3C//DTD SVG 1.1//EN"
 "http://www.w3.org/Graphics/SVG/1.1/DTD/svg11.dtd">
<!-- Generated by graphviz version 2.43.0 (0)
 -->
<!-- Title: call_graph Pages: 1 -->
<svg width="462pt" height="548pt"
 viewBox="0.00 0.00 462.00 548.00" xmlns="http://www.w3.org/2000/svg" xmlns:xlink="http://www.w3.org/1999/xlink">
<g id="graph0" class="graph" transform="scale(1 1) rotate(0) translate(4 544)">
<title>call_graph</title>
<g id="clust1" class="cluster">
<title>cluster_0</title>
<polygon fill="transparent" stroke="#26314b" points="12,-8 12,-187 232.5,-187 232.5,-8 12,-8"/>
<text text-anchor="middle" x="122.25" y="-175" font-family="Helvetica,sans-Serif" font-size="10.00" fill="#96a0b8">api/bookings.py</text>
</g>
<g id="clust2" class="cluster">
<title>cluster_1</title>
<polygon fill="transparent" stroke="#26314b" points="13.5,-328 13.5,-453 133.5,-453 133.5,-328 13.5,-328"/>
<text text-anchor="middle" x="73.5" y="-441" font-family="Helvetica,sans-Serif" font-size="10.00" fill="#96a0b8">api/itinerary.py</text>
</g>
<g id="clust3" class="cluster">
<title>cluster_2</title>
<polygon fill="transparent" stroke="#26314b" points="11,-195 11,-320 232.5,-320 232.5,-195 11,-195"/>
<text text-anchor="middle" x="121.75" y="-308" font-family="Helvetica,sans-Serif" font-size="10.00" fill="#96a0b8">jobs/runner.py</text>
</g>
<g id="clust4" class="cluster">
<title>cluster_legend</title>
<polygon fill="transparent" stroke="#26314b" points="8,-461 8,-532 446,-532 446,-461 8,-461"/>
<text text-anchor="middle" x="227" y="-520" font-family="Helvetica,sans-Serif" font-size="10.00" fill="#96a0b8">key</text>
</g>
<!-- _query -->
<g id="node1" class="node">
<title>_query</title>
<path fill="#1a1e28" stroke="#8a93a6" stroke-width="1.2" d="M212.5,-52C212.5,-52 182.5,-52 182.5,-52 176.5,-52 170.5,-46 170.5,-40 170.5,-40 170.5,-28 170.5,-28 170.5,-22 176.5,-16 182.5,-16 182.5,-16 212.5,-16 212.5,-16 218.5,-16 224.5,-22 224.5,-28 224.5,-28 224.5,-40 224.5,-40 224.5,-46 218.5,-52 212.5,-52"/>
<text text-anchor="middle" x="197.5" y="-31.2" font-family="Helvetica,sans-Serif" font-size="11.00" fill="#e9edf6">_query</text>
</g>
<!-- _settle -->
<g id="node2" class="node">
<title>_settle</title>
<path fill="#141c2a" stroke="#4d9bff" stroke-width="1.2" d="M212.5,-293C212.5,-293 182.5,-293 182.5,-293 176.5,-293 170.5,-287 170.5,-281 170.5,-281 170.5,-269 170.5,-269 170.5,-263 176.5,-257 182.5,-257 182.5,-257 212.5,-257 212.5,-257 218.5,-257 224.5,-263 224.5,-269 224.5,-269 224.5,-281 224.5,-281 224.5,-287 218.5,-293 212.5,-293"/>
<text text-anchor="middle" x="197.5" y="-272.2" font-family="Helvetica,sans-Serif" font-size="11.00" fill="#e9edf6">_settle</text>
</g>
<!-- audit_line -->
<g id="node3" class="node">
<title>audit_line</title>
<path fill="#15171d" stroke="#525a6e" stroke-width="1.2" stroke-dasharray="5,2" d="M96,-160C96,-160 51,-160 51,-160 45,-160 39,-154 39,-148 39,-148 39,-136 39,-136 39,-130 45,-124 51,-124 51,-124 96,-124 96,-124 102,-124 108,-130 108,-136 108,-136 108,-148 108,-148 108,-154 102,-160 96,-160"/>
<text text-anchor="middle" x="73.5" y="-139.2" font-family="Helvetica,sans-Serif" font-size="11.00" fill="#9aa3b5">audit_line</text>
</g>
<!-- debug_dump -->
<g id="node4" class="node">
<title>debug_dump</title>
<path fill="#15171d" stroke="#525a6e" stroke-width="1.2" stroke-dasharray="5,2" d="M104.5,-426C104.5,-426 42.5,-426 42.5,-426 36.5,-426 30.5,-420 30.5,-414 30.5,-414 30.5,-402 30.5,-402 30.5,-396 36.5,-390 42.5,-390 42.5,-390 104.5,-390 104.5,-390 110.5,-390 116.5,-396 116.5,-402 116.5,-402 116.5,-414 116.5,-414 116.5,-420 110.5,-426 104.5,-426"/>
<text text-anchor="middle" x="73.5" y="-405.2" font-family="Helvetica,sans-Serif" font-size="11.00" fill="#9aa3b5">debug_dump</text>
</g>
<!-- legacy_export -->
<g id="node5" class="node">
<title>legacy_export</title>
<path fill="#15171d" stroke="#525a6e" stroke-width="1.2" stroke-dasharray="5,2" d="M108.5,-106C108.5,-106 38.5,-106 38.5,-106 32.5,-106 26.5,-100 26.5,-94 26.5,-94 26.5,-82 26.5,-82 26.5,-76 32.5,-70 38.5,-70 38.5,-70 108.5,-70 108.5,-70 114.5,-70 120.5,-76 120.5,-82 120.5,-82 120.5,-94 120.5,-94 120.5,-100 114.5,-106 108.5,-106"/>
<text text-anchor="middle" x="73.5" y="-85.2" font-family="Helvetica,sans-Serif" font-size="11.00" fill="#9aa3b5">legacy_export</text>
</g>
<!-- nightly_reconcile -->
<g id="node6" class="node">
<title>nightly_reconcile</title>
<path fill="#141c2a" stroke="#4d9bff" stroke-width="1.2" d="M116,-293C116,-293 31,-293 31,-293 25,-293 19,-287 19,-281 19,-281 19,-269 19,-269 19,-263 25,-257 31,-257 31,-257 116,-257 116,-257 122,-257 128,-263 128,-269 128,-269 128,-281 128,-281 128,-287 122,-293 116,-293"/>
<text text-anchor="middle" x="73.5" y="-272.2" font-family="Helvetica,sans-Serif" font-size="11.00" fill="#e9edf6">nightly_reconcile</text>
</g>
<!-- nightly_reconcile&#45;&gt;_settle -->
<g id="edge1" class="edge">
<title>nightly_reconcile&#45;&gt;_settle</title>
<path fill="none" stroke="#8a93a6" stroke-width="1.1" d="M128.01,-275C138.94,-275 150.19,-275 160.34,-275"/>
<polygon fill="#8a93a6" stroke="#8a93a6" stroke-width="1.1" points="160.46,-278.5 170.46,-275 160.46,-271.5 160.46,-278.5"/>
</g>
<!-- render_itinerary -->
<g id="node7" class="node">
<title>render_itinerary</title>
<path fill="#2a1614" stroke="#e05c4b" stroke-width="1.2" d="M113.5,-372C113.5,-372 33.5,-372 33.5,-372 27.5,-372 21.5,-366 21.5,-360 21.5,-360 21.5,-348 21.5,-348 21.5,-342 27.5,-336 33.5,-336 33.5,-336 113.5,-336 113.5,-336 119.5,-336 125.5,-342 125.5,-348 125.5,-348 125.5,-360 125.5,-360 125.5,-366 119.5,-372 113.5,-372"/>
<text text-anchor="middle" x="73.5" y="-351.2" font-family="Helvetica,sans-Serif" font-size="11.00" fill="#e9edf6">render_itinerary</text>
</g>
<!-- run_job -->
<g id="node8" class="node">
<title>run_job</title>
<path fill="#141c2a" stroke="#4d9bff" stroke-width="1.2" d="M89.5,-239C89.5,-239 57.5,-239 57.5,-239 51.5,-239 45.5,-233 45.5,-227 45.5,-227 45.5,-215 45.5,-215 45.5,-209 51.5,-203 57.5,-203 57.5,-203 89.5,-203 89.5,-203 95.5,-203 101.5,-209 101.5,-215 101.5,-215 101.5,-227 101.5,-227 101.5,-233 95.5,-239 89.5,-239"/>
<text text-anchor="middle" x="73.5" y="-218.2" font-family="Helvetica,sans-Serif" font-size="11.00" fill="#e9edf6">run_job</text>
</g>
<!-- search_bookings -->
<g id="node9" class="node">
<title>search_bookings</title>
<path fill="#2a1614" stroke="#e05c4b" stroke-width="1.2" d="M115,-52C115,-52 32,-52 32,-52 26,-52 20,-46 20,-40 20,-40 20,-28 20,-28 20,-22 26,-16 32,-16 32,-16 115,-16 115,-16 121,-16 127,-22 127,-28 127,-28 127,-40 127,-40 127,-46 121,-52 115,-52"/>
<text text-anchor="middle" x="73.5" y="-31.2" font-family="Helvetica,sans-Serif" font-size="11.00" fill="#e9edf6">search_bookings</text>
</g>
<!-- search_bookings&#45;&gt;_query -->
<g id="edge2" class="edge">
<title>search_bookings&#45;&gt;_query</title>
<path fill="none" stroke="#8a93a6" stroke-width="1.1" d="M127.3,-34C138.39,-34 149.85,-34 160.17,-34"/>
<polygon fill="#8a93a6" stroke="#8a93a6" stroke-width="1.1" points="160.45,-37.5 170.45,-34 160.45,-30.5 160.45,-37.5"/>
</g>
<!-- legend_entry -->
<g id="node10" class="node">
<title>legend_entry</title>
<path fill="#2a1614" stroke="#e05c4b" stroke-width="1.2" d="M119,-505C119,-505 28,-505 28,-505 22,-505 16,-499 16,-493 16,-493 16,-481 16,-481 16,-475 22,-469 28,-469 28,-469 119,-469 119,-469 125,-469 131,-475 131,-481 131,-481 131,-493 131,-493 131,-499 125,-505 119,-505"/>
<text text-anchor="middle" x="73.5" y="-484.8" font-family="Helvetica,sans-Serif" font-size="9.00" fill="#e9edf6">untrusted entry point</text>
</g>
<!-- legend_unit -->
<g id="node11" class="node">
<title>legend_unit</title>
<path fill="#1a1e28" stroke="#8a93a6" stroke-width="1.2" d="M216,-505C216,-505 179,-505 179,-505 173,-505 167,-499 167,-493 167,-493 167,-481 167,-481 167,-475 173,-469 179,-469 179,-469 216,-469 216,-469 222,-469 228,-475 228,-481 228,-481 228,-493 228,-493 228,-499 222,-505 216,-505"/>
<text text-anchor="middle" x="197.5" y="-484.8" font-family="Helvetica,sans-Serif" font-size="9.00" fill="#e9edf6">reachable</text>
</g>
<!-- legend_entry&#45;&gt;legend_unit -->
<!-- legend_dead -->
<g id="node12" class="node">
<title>legend_dead</title>
<path fill="#15171d" stroke="#525a6e" stroke-width="1.2" stroke-dasharray="5,2" d="M325,-505C325,-505 276,-505 276,-505 270,-505 264,-499 264,-493 264,-493 264,-481 264,-481 264,-475 270,-469 276,-469 276,-469 325,-469 325,-469 331,-469 337,-475 337,-481 337,-481 337,-493 337,-493 337,-499 331,-505 325,-505"/>
<text text-anchor="middle" x="300.5" y="-484.8" font-family="Helvetica,sans-Serif" font-size="9.00" fill="#9aa3b5">unreachable</text>
</g>
<!-- legend_unit&#45;&gt;legend_dead -->
<!-- legend_unknown -->
<g id="node13" class="node">
<title>legend_unknown</title>
<path fill="#141c2a" stroke="#4d9bff" stroke-width="1.2" d="M426,-505C426,-505 385,-505 385,-505 379,-505 373,-499 373,-493 373,-493 373,-481 373,-481 373,-475 379,-469 385,-469 385,-469 426,-469 426,-469 432,-469 438,-475 438,-481 438,-481 438,-493 438,-493 438,-499 432,-505 426,-505"/>
<text text-anchor="middle" x="405.5" y="-484.8" font-family="Helvetica,sans-Serif" font-size="9.00" fill="#e9edf6">undecided</text>
</g>
<!-- legend_dead&#45;&gt;legend_unknown -->
</g>
</svg>
